# xmcd
# 
# Track frame offsets:
#     150
#     9555
#     17690
#     26075
#     35880
#     49275
#     58580
#     69657
#     82350
#     95937
#     107817
#     115585
#     126307
#     134940
#     148302
#     158605
#     167880
#     176422
#     188792
#     199852
#     207607
#     221050
#     231817
#     244232
#     257167
#     269207
#     276552
#     284337
#     296672
# 
# Disc length: 4116
# 
# Revision: 3
# Processed by: cddbd v1.5.2PL0 Copyright (c) Steve Scherf et al.
# Submitted via: fre:ac v1.0.17
# 
DISCID=ea10121d
DTITLE=Eddie Bond - Rockin' Daddy cd 2
DYEAR=0
DGENRE=Rock and Roll
TTITLE0=One More Memory
TTITLE1=I Can't Quit
TTITLE2=My Bucket's Got A Hole In It
TTITLE3=Back Home In Indiana (Instr.)
TTITLE4=They'll Never Take Her Love From Me
TTITLE5=The Day I Found You
TTITLE6=Standing In The Window
TTITLE7=Back Street Affair
TTITLE8=Our Secret Rendezvous
TTITLE9=Your Eyes
TTITLE10=Double Duty Lovin'
TTITLE11=I'd Just Be Fool Enough
TTITLE12=You Nearly Lose Your Mind
TTITLE13=I Though I Heard You Call My Name
TTITLE14=Big Boss Man
TTITLE15=Rockin' Daddy
TTITLE16=In My Solitude
TTITLE17=Most Of All I Want To See Jesus
TTITLE18=Where Could I Go But To The Lord
TTITLE19=Satisfied
TTITLE20=When They Ring Those Golden Bells
TTITLE21=If We Never Meet Again
TTITLE22=Will I Be Lost Or Will I Be Saved
TTITLE23=Just a Closer Walk With Thee
TTITLE24=Pass Me Not, Oh Gentle Savior
TTITLE25=I Saw The Light
TTITLE26=Letter To God
TTITLE27=Precious Memories
TTITLE28=Hallelujah Way
EXTD=
EXTT0=
EXTT1=
EXTT2=
EXTT3=
EXTT4=
EXTT5=
EXTT6=
EXTT7=
EXTT8=
EXTT9=
EXTT10=
EXTT11=
EXTT12=
EXTT13=
EXTT14=
EXTT15=
EXTT16=
EXTT17=
EXTT18=
EXTT19=
EXTT20=
EXTT21=
EXTT22=
EXTT23=
EXTT24=
EXTT25=
EXTT26=
EXTT27=
EXTT28=
PLAYORDER=
